<svg width="500" height="500" viewBox="0 0 500 500" fill="none" xmlns="http://www.w3.org/2000/svg">
<path fill-rule="evenodd" clip-rule="evenodd" d="M0 202.875H62.5V234.125H0V202.875Z" fill="#90A4AE"/>
<path fill-rule="evenodd" clip-rule="evenodd" d="M0.00268555 156H31.2527V284.445H0.00268555V156Z" fill="#90A4AE"/>
<path fill-rule="evenodd" clip-rule="evenodd" d="M62.6756 343.5C46.0692 343.546 30.127 336.982 18.368 325.256C6.60894 313.53 0 297.606 0 281H31.25C31.25 289.303 34.5545 297.265 40.434 303.128C46.3135 308.991 54.2846 312.273 62.5878 312.25L62.6756 343.5Z" fill="#90A4AE"/>
<path fill-rule="evenodd" clip-rule="evenodd" d="M125.002 202.875H93.7524V345.961H125.002V202.875Z" fill="#90A4AE"/>
<path fill-rule="evenodd" clip-rule="evenodd" d="M62.3245 406C78.9309 406.046 94.8731 399.482 106.632 387.756C118.391 376.03 125 360.107 125 343.5H93.7501C93.7501 351.803 90.4456 359.765 84.5661 365.628C78.6866 371.491 70.7155 374.773 62.4123 374.75L62.3245 406Z" fill="#90A4AE"/>
<path fill-rule="evenodd" clip-rule="evenodd" d="M93.75 171.625C93.75 162.996 100.746 156 109.375 156C113.519 156 117.493 157.646 120.424 160.576C123.354 163.507 125 167.481 125 171.625C125 180.254 118.004 187.25 109.375 187.25C100.746 187.25 93.75 180.254 93.75 171.625Z" fill="#90A4AE"/>
<path fill-rule="evenodd" clip-rule="evenodd" d="M234.375 249.75C234.375 197.973 276.348 156 328.125 156C352.989 156 376.835 165.877 394.416 183.459C411.998 201.04 421.875 224.886 421.875 249.75C421.875 301.527 379.902 343.5 328.125 343.5C276.348 343.5 234.375 301.527 234.375 249.75ZM265.757 249.75C265.757 284.195 293.68 312.118 328.125 312.118C362.57 312.118 390.493 284.195 390.493 249.75C390.493 215.305 362.57 187.382 328.125 187.382C293.68 187.382 265.757 215.305 265.757 249.75Z" fill="#F9484E"/>
<path fill-rule="evenodd" clip-rule="evenodd" d="M187.5 156H218.75V343.5H187.5V156Z" fill="#F70A12"/>
<path fill-rule="evenodd" clip-rule="evenodd" d="M156.25 156H250V187.25H156.25V156Z" fill="#F70A12"/>
<path fill-rule="evenodd" clip-rule="evenodd" d="M156.25 312.25H250V343.5H156.25V312.25Z" fill="#F70A12"/>
<path fill-rule="evenodd" clip-rule="evenodd" d="M437.5 156H468.75V343.5H437.5V156Z" fill="#F70A12"/>
<path fill-rule="evenodd" clip-rule="evenodd" d="M406.25 156H500V187.25H406.25V156Z" fill="#F70A12"/>
<path fill-rule="evenodd" clip-rule="evenodd" d="M406.25 312.25H500V343.5H406.25V312.25Z" fill="#F70A12"/>
</svg>
