<?xml version="1.0" standalone="no"?>
<!DOCTYPE svg PUBLIC "-//W3C//DTD SVG 20010904//EN"
 "http://www.w3.org/TR/2001/REC-SVG-20010904/DTD/svg10.dtd">
<svg version="1.0" xmlns="http://www.w3.org/2000/svg"
 width="500.000000pt" height="500.000000pt" viewBox="0 0 500.000000 500.000000"
 preserveAspectRatio="xMidYMid meet">
<metadata>
Created by potrace 1.14, written by Peter Selinger 2001-2017
</metadata>
<g transform="translate(0.000000,500.000000) scale(0.100000,-0.100000)"
fill="#000000" stroke="none">
<path d="M60 3431 c0 -4 -13 -6 -28 -3 l-28 4 3 -684 c2 -762 2 -718 12 -718
4 0 8 -11 9 -25 3 -46 5 -55 13 -55 6 0 25 -42 27 -63 1 -4 11 -17 24 -28 21
-17 21 -18 3 -13 -13 4 -9 -2 10 -15 17 -11 24 -21 18 -21 -7 0 -13 -5 -13
-10 0 -6 3 -9 7 -9 20 3 34 -2 28 -11 -3 -5 1 -10 9 -10 9 0 16 -7 16 -16 0
-8 4 -13 9 -9 5 3 12 -3 15 -12 3 -10 16 -23 28 -28 13 -6 22 -17 20 -24 -1
-7 2 -10 7 -7 5 3 14 -1 21 -9 7 -8 19 -15 26 -15 8 0 14 -5 14 -11 0 -5 4 -8
9 -5 4 3 16 -1 27 -8 10 -8 24 -11 31 -9 8 3 13 0 11 -8 -4 -16 24 -19 34 -4
5 6 8 2 8 -8 0 -10 4 -15 10 -12 5 3 10 1 10 -4 0 -6 5 -11 11 -11 5 0 7 6 3
13 -6 8 -3 8 9 -1 9 -8 21 -11 27 -7 5 3 10 2 10 -3 0 -6 10 -8 22 -4 15 4 19
2 13 -7 -6 -10 -3 -11 13 -2 15 8 22 8 25 -2 4 -9 6 -9 6 1 1 6 7 12 15 12 11
0 13 17 11 80 -2 58 0 78 9 73 6 -4 5 1 -3 10 -7 9 -11 27 -8 39 4 12 1 29 -6
37 -10 12 -9 13 1 7 9 -6 11 -1 8 20 -6 31 -22 45 -44 36 -10 -3 -13 -1 -8 6
4 7 2 12 -3 12 -6 0 -11 -6 -11 -12 0 -9 -3 -9 -9 1 -5 8 -16 11 -26 8 -9 -4
-14 -3 -10 3 7 11 -35 31 -48 23 -4 -2 -7 3 -7 12 0 11 -5 15 -16 11 -8 -3
-12 -2 -9 4 3 6 0 10 -8 10 -19 0 -47 32 -47 54 0 9 -5 14 -10 11 -6 -3 -10 3
-10 14 0 12 -4 21 -10 21 -5 0 -10 11 -10 25 0 14 -4 25 -8 25 -12 0 -12 -1
-15 217 -1 116 1 189 7 186 5 -4 6 -1 2 5 -12 20 -15 51 -5 57 5 4 6 12 2 18
-12 20 -14 47 -2 47 5 0 7 5 4 10 -3 6 1 10 9 11 58 3 84 1 96 -6 10 -6 12 -4
6 10 -5 14 -3 15 6 8 16 -13 180 -14 172 -2 -3 5 -1 9 3 9 5 0 8 68 8 150 0
83 -2 150 -5 150 -3 0 -12 -6 -19 -12 -11 -11 -12 -10 -6 1 6 11 3 13 -12 9
-11 -3 -28 -1 -38 5 -13 7 -16 6 -10 -3 6 -9 3 -9 -13 -1 -15 8 -22 8 -25 -2
-4 -9 -8 -8 -16 3 -8 11 -11 11 -11 2 0 -10 -5 -10 -20 -2 -14 7 -20 7 -20 0
0 -12 -22 -9 -32 5 -5 6 -8 5 -8 -4 0 -11 -3 -11 -15 -1 -9 7 -15 8 -15 2 0
-17 -40 -1 -41 17 0 9 -2 24 -4 33 -2 10 1 20 6 24 5 3 6 11 2 17 -4 7 -7 91
-8 189 0 97 -3 180 -7 184 -5 4 -8 2 -8 -6 0 -9 -3 -10 -14 -1 -11 9 -15 9
-19 -1 -4 -10 -6 -10 -6 0 -1 6 -6 12 -12 12 -5 0 -8 -4 -5 -9 4 -5 -9 -6 -29
-1 -23 5 -36 4 -39 -4 -3 -8 -5 -7 -5 1 -1 9 -8 10 -25 3 -13 -5 -26 -7 -29
-4 -8 9 -47 13 -47 5z"/>
<path d="M1019 3422 c-51 -34 -101 -103 -81 -110 7 -2 8 -11 2 -28 -5 -13 -6
-24 -2 -24 4 0 8 -11 8 -25 2 -31 22 -57 38 -48 6 3 8 3 4 -2 -8 -9 15 -35 31
-35 6 0 11 -4 11 -10 0 -5 5 -10 11 -10 5 0 7 6 4 13 -4 6 3 1 14 -12 12 -13
21 -18 21 -12 0 6 10 11 23 11 38 0 66 4 62 8 -6 7 19 30 28 25 4 -2 7 1 7 7
0 15 26 41 33 33 4 -3 5 4 2 16 -2 11 1 21 7 21 7 0 7 4 1 13 -8 11 -10 28 -3
42 7 16 3 50 -7 50 -6 0 -15 4 -20 9 -5 5 -2 6 6 1 9 -5 12 -3 9 6 -3 8 -11
13 -17 11 -7 -1 -10 1 -7 6 3 5 -2 18 -10 28 -9 10 -13 12 -9 4 4 -8 -1 -6 -9
4 -9 11 -16 16 -16 10 0 -5 -5 -2 -10 6 -8 12 -10 12 -10 1 0 -9 -4 -10 -12
-3 -7 5 -22 6 -33 2 -11 -4 -27 -4 -36 1 -10 5 -25 2 -40 -9z"/>
<path d="M1572 3422 c-8 -11 -10 -12 -6 -2 4 8 3 11 -1 7 -13 -12 -14 -137 -1
-137 7 0 7 -3 1 -8 -14 -10 -15 -56 -1 -64 7 -5 7 -8 0 -8 -10 0 -12 -59 -2
-76 4 -5 35 -8 70 -6 73 3 60 2 165 0 45 -1 79 -6 77 -10 -3 -5 0 -16 8 -25 8
-11 8 -14 1 -10 -8 5 -11 0 -10 -13 1 -11 6 -20 12 -20 5 0 4 -4 -4 -9 -9 -6
-10 -11 -2 -15 6 -4 8 -12 4 -19 -11 -18 -11 -72 1 -79 7 -5 8 -11 1 -15 -15
-12 -17 -31 -4 -55 7 -13 7 -18 1 -14 -6 4 -10 -2 -9 -14 1 -11 6 -20 12 -20
5 0 4 -4 -4 -9 -9 -6 -10 -11 -2 -15 6 -4 8 -12 4 -19 -11 -18 -11 -72 1 -79
7 -5 8 -11 1 -15 -15 -12 -17 -31 -4 -55 7 -13 7 -18 1 -14 -6 4 -10 -2 -9
-14 1 -11 6 -20 12 -20 5 0 4 -4 -4 -9 -9 -6 -10 -11 -2 -15 6 -4 8 -12 4 -19
-11 -18 -11 -72 1 -79 7 -5 8 -11 1 -15 -15 -12 -17 -31 -4 -55 7 -13 7 -18 1
-14 -6 4 -10 -2 -9 -14 1 -11 6 -20 12 -20 5 0 4 -4 -4 -9 -9 -6 -10 -11 -2
-15 6 -4 8 -12 4 -19 -11 -18 -11 -72 1 -79 7 -5 8 -11 1 -15 -15 -12 -17 -31
-4 -55 7 -13 7 -18 1 -14 -6 4 -10 -2 -9 -14 1 -11 6 -20 12 -20 5 0 4 -4 -4
-9 -9 -6 -10 -11 -2 -15 6 -4 8 -12 4 -19 -11 -17 -11 -71 0 -78 5 -4 6 -12 1
-20 -13 -21 -13 -39 -1 -39 8 0 7 -4 -2 -9 -7 -5 -10 -14 -7 -20 8 -12 0 -13
-79 -16 -27 0 -56 4 -64 9 -11 8 -13 8 -8 -1 5 -8 -13 -11 -68 -9 -48 2 -75
-1 -76 -8 0 -6 -4 -2 -9 9 -10 23 -11 19 -14 -73 -1 -34 2 -62 6 -62 5 0 6 -6
1 -12 -4 -7 -8 -42 -8 -78 0 -70 15 -96 46 -80 10 6 20 5 27 -2 9 -9 12 -9 12
1 0 9 4 10 13 5 11 -8 32 -10 47 -4 20 7 40 7 40 -1 0 -6 7 -6 18 0 13 7 23 6
30 -1 9 -9 12 -9 12 1 0 9 4 10 13 5 11 -8 32 -10 47 -4 18 6 40 7 40 1 0 -9
31 -8 47 2 6 4 15 3 18 -3 5 -8 12 -7 22 2 9 7 17 13 17 12 18 -15 46 -22 52
-13 4 8 9 7 15 -2 7 -11 9 -11 9 -1 0 8 5 10 13 5 16 -10 37 -10 65 -1 15 5
22 3 22 -5 0 -8 3 -8 9 2 6 9 10 10 16 2 5 -9 10 -9 20 -1 10 8 15 8 20 0 5
-8 10 -8 20 0 10 8 15 8 20 0 5 -8 11 -7 22 2 9 7 19 11 22 10 30 -18 39 -20
49 -10 9 9 12 9 12 -1 0 -11 3 -11 15 -1 12 10 15 10 15 -1 0 -10 3 -10 12 -1
15 15 32 16 22 1 -5 -8 -1 -8 14 0 19 10 35 45 25 55 -9 9 -8 114 1 109 5 -4
6 0 1 7 -9 15 -13 80 -4 80 14 0 1 43 -16 52 -13 8 -16 7 -10 -1 5 -9 1 -8
-14 1 -18 11 -23 11 -31 -2 -5 -8 -10 -10 -10 -4 0 14 -150 13 -150 -1 0 -5
-4 -4 -9 4 -5 8 -16 11 -25 8 -19 -8 -48 2 -41 13 3 5 1 11 -5 15 -7 4 -6 13
1 28 9 16 9 22 0 25 -9 3 -9 7 0 18 9 11 9 14 0 14 -8 0 -9 5 -3 16 5 9 6 32
2 50 -4 19 -4 32 0 29 7 -5 4 90 -5 112 -2 7 0 15 5 18 7 4 6 13 0 25 -6 10
-6 21 -1 24 8 5 6 67 -4 93 -2 7 0 15 5 18 7 4 7 13 0 24 -5 10 -6 21 -3 25
10 10 11 46 1 46 -5 0 -5 7 0 16 5 9 6 32 2 50 -4 19 -4 32 0 29 4 -2 7 9 6
25 -1 17 -4 30 -8 30 -4 0 -3 11 2 25 6 16 6 25 0 25 -6 0 -6 10 0 26 7 18 7
23 -1 18 -7 -4 -7 1 1 16 7 12 8 25 4 29 -11 7 -14 52 -4 46 4 -2 7 9 6 25 -1
17 -4 30 -8 30 -4 0 -3 11 2 25 6 16 6 25 0 25 -6 0 -6 10 0 26 7 18 7 23 -1
18 -7 -4 -7 1 1 16 7 12 8 25 4 29 -11 7 -14 52 -3 46 8 -6 4 53 -4 62 -11 11
30 33 49 26 13 -5 15 -3 9 8 -7 12 -6 12 7 1 13 -10 17 -10 21 0 3 7 6 8 6 2
1 -7 12 -9 27 -6 21 4 25 2 19 -9 -8 -12 -6 -12 8 -1 9 8 21 11 27 7 5 -3 10
0 10 7 0 8 3 9 8 3 8 -12 62 -14 62 -3 0 4 5 8 11 8 5 0 8 -4 5 -8 -8 -13 30
-9 43 5 6 7 8 13 4 13 -12 0 -10 144 2 152 7 5 7 8 0 8 -6 0 -9 25 -7 61 1 35
-2 58 -7 55 -5 -4 -12 0 -14 6 -4 10 -6 10 -6 0 -1 -10 -6 -10 -21 -2 -15 8
-20 8 -20 -2 0 -9 -3 -9 -10 2 -9 13 -10 13 -10 0 0 -9 -3 -11 -8 -5 -4 6 -18
10 -32 10 -14 0 -28 -4 -32 -10 -5 -6 -8 -5 -8 2 0 9 -7 10 -23 4 -14 -6 -30
-6 -38 0 -19 12 -32 11 -23 -2 4 -8 0 -8 -15 0 -16 9 -21 9 -21 0 0 -9 -3 -9
-14 0 -10 8 -16 9 -21 1 -3 -6 -11 -7 -18 -3 -16 9 -57 10 -57 1 0 -4 -5 -8
-11 -8 -5 0 -8 4 -5 8 2 4 -4 8 -15 8 -10 0 -19 -4 -19 -9 0 -5 -6 -4 -14 2
-10 8 -16 9 -21 1 -3 -6 -11 -7 -18 -3 -16 10 -57 10 -57 0 0 -4 -4 -6 -9 -3
-7 5 -72 7 -121 5 -8 0 -25 2 -37 5 -14 3 -23 0 -23 -7 0 -8 -3 -8 -11 0 -8 8
-20 8 -34 3 -13 -5 -25 -7 -28 -4 -10 10 -47 12 -47 3 0 -6 -6 -6 -18 0 -13 7
-21 5 -30 -7z"/>
<path d="M3147 3422 c-12 -11 -17 -12 -17 -4 0 7 -4 10 -10 7 -13 -8 -51 -17
-72 -17 -10 1 -18 -4 -18 -9 0 -5 -6 -9 -12 -8 -25 3 -39 -1 -34 -10 4 -5 -3
-7 -14 -4 -13 3 -20 0 -20 -8 0 -11 -2 -11 -10 1 -7 12 -10 12 -10 1 0 -7 -6
-11 -15 -7 -8 3 -15 1 -15 -4 0 -5 -10 -14 -21 -21 -17 -9 -20 -8 -14 3 4 7
-2 2 -13 -11 -15 -18 -21 -21 -25 -10 -4 10 -6 10 -6 2 -1 -7 -8 -13 -17 -13
-10 0 -14 -5 -10 -16 3 -8 2 -13 -3 -9 -5 3 -17 -2 -25 -11 -9 -8 -16 -12 -16
-8 0 4 -8 -3 -19 -14 -10 -12 -21 -19 -24 -15 -4 3 -9 -2 -13 -11 -3 -9 -10
-14 -14 -11 -4 3 -11 -2 -14 -11 -3 -8 -11 -12 -16 -9 -6 4 -10 3 -9 -2 4 -21
-2 -32 -15 -27 -8 3 -17 0 -22 -7 -5 -8 -3 -10 7 -5 8 4 4 -1 -8 -12 -13 -11
-23 -25 -23 -31 0 -6 -6 -11 -12 -11 -7 0 -22 -13 -33 -28 -19 -27 -19 -27 0
-13 11 7 8 2 -7 -12 -15 -14 -24 -28 -21 -31 4 -3 1 -6 -5 -6 -7 0 -12 -7 -12
-15 0 -8 -5 -15 -12 -15 -6 0 -8 -3 -5 -6 3 -4 -2 -18 -13 -32 -11 -13 -17
-28 -14 -33 3 -5 0 -9 -5 -9 -6 0 -11 -9 -11 -19 0 -11 -5 -23 -10 -26 -6 -4
-7 -11 -4 -17 5 -8 1 -9 -10 -5 -14 6 -15 3 -6 -13 8 -14 8 -20 0 -20 -6 0 -8
-4 -5 -10 3 -5 0 -10 -7 -10 -8 0 -9 -3 -3 -8 13 -9 19 -35 6 -28 -13 9 -20
-16 -10 -36 6 -11 5 -19 -3 -24 -7 -4 -8 -3 -4 4 4 7 2 12 -3 12 -7 0 -9 -16
-7 -39 3 -29 0 -41 -12 -46 -11 -4 -12 -9 -4 -17 8 -8 8 -17 1 -30 -5 -10 -6
-18 -1 -18 4 0 8 -9 8 -20 0 -11 -4 -20 -9 -20 -5 0 -4 -7 3 -15 9 -11 9 -15
1 -15 -7 0 -9 -5 -5 -12 4 -7 8 -33 8 -60 -1 -26 3 -45 7 -43 4 3 7 -11 7 -31
0 -20 5 -40 12 -44 8 -5 9 -10 2 -14 -7 -4 -6 -15 3 -33 8 -15 12 -30 9 -35
-3 -4 0 -8 5 -8 6 0 11 -7 11 -16 0 -9 -5 -12 -12 -8 -7 4 -8 3 -4 -5 4 -6 11
-9 16 -6 4 3 11 -12 15 -32 3 -20 16 -45 28 -55 12 -11 16 -17 10 -13 -7 3
-13 1 -13 -4 0 -6 5 -11 10 -11 6 0 10 -7 10 -15 0 -8 5 -15 10 -15 6 0 10 -7
10 -15 0 -8 5 -15 11 -15 5 0 7 -4 4 -10 -3 -5 -1 -10 5 -10 7 0 9 -7 6 -16
-3 -8 -2 -13 2 -10 5 3 14 -4 22 -14 8 -10 17 -17 22 -14 5 3 8 2 7 -3 -5 -16
25 -63 39 -63 9 0 13 -3 9 -6 -7 -8 36 -53 46 -47 4 2 7 -1 7 -8 0 -7 3 -10 6
-6 8 7 34 -17 34 -32 0 -6 3 -10 8 -10 20 3 32 -3 32 -17 0 -8 4 -12 10 -9 5
3 22 -6 36 -20 20 -20 25 -22 20 -8 -6 17 -5 17 7 1 8 -10 17 -15 20 -11 4 3
7 0 7 -7 0 -7 3 -10 7 -7 3 4 12 -1 20 -11 8 -9 12 -11 8 -4 -9 17 -2 15 24
-7 12 -11 33 -18 46 -16 14 1 22 -2 19 -6 -3 -5 3 -9 13 -9 11 0 25 -6 32 -12
11 -11 12 -10 6 1 -5 9 -4 12 3 7 7 -4 12 -15 13 -24 0 -14 2 -14 8 2 5 13 10
16 15 8 3 -6 13 -9 21 -5 8 3 15 1 15 -4 0 -6 26 -9 59 -9 46 1 57 -2 53 -13
-4 -10 -1 -11 15 -3 11 6 23 8 27 5 9 -10 46 -11 46 -2 0 9 20 7 37 -4 6 -4
19 0 27 9 12 11 16 12 16 2 0 -10 2 -10 8 -1 5 7 21 10 41 7 20 -3 31 -2 27 4
-3 5 7 10 22 10 15 0 36 3 47 5 11 3 24 6 28 6 5 1 5 6 1 12 -4 7 0 9 14 5 11
-4 23 -2 27 4 3 6 11 8 16 5 5 -4 9 0 9 7 0 10 3 9 10 -2 8 -12 10 -12 16 3 3
9 15 17 26 17 10 0 16 4 13 10 -3 6 1 7 9 4 9 -3 16 -1 16 5 0 6 6 10 13 9 6
-2 11 3 9 11 -2 11 0 12 11 2 12 -9 16 -8 21 4 3 9 10 13 16 10 5 -3 10 -1 10
4 0 6 7 11 16 11 8 0 13 4 10 8 -2 4 4 14 16 21 15 9 18 10 13 0 -5 -8 -4 -10
3 -5 7 4 12 14 12 22 0 8 4 13 9 9 6 -3 14 2 19 11 5 9 12 15 16 14 11 -2 55
48 48 54 -3 3 2 6 11 6 9 0 19 5 23 12 5 7 3 8 -6 3 -9 -5 -11 -4 -6 3 4 7 15
12 24 13 10 0 12 3 5 6 -10 3 -10 7 0 18 7 7 16 10 21 7 5 -3 7 2 4 10 -4 8 2
21 12 28 11 8 16 18 13 24 -4 5 1 7 12 2 15 -5 16 -4 5 9 -11 13 -11 16 1 13
8 -2 14 4 14 12 0 8 6 19 13 23 7 5 10 12 7 18 -4 5 -1 9 6 9 6 0 9 8 6 20 -3
11 -1 18 4 14 5 -3 9 2 9 10 0 9 4 16 8 16 8 0 10 6 14 49 1 11 7 17 12 14 5
-4 7 1 3 10 -3 10 -2 17 4 17 6 0 7 5 4 10 -4 6 -1 18 7 27 11 14 11 16 -1 8
-11 -6 -11 -3 1 14 9 13 14 34 12 47 -2 13 0 24 5 24 5 0 8 11 6 25 -1 14 3
25 9 25 7 0 7 3 1 8 -12 8 -14 82 -2 82 5 0 5 5 1 11 -10 17 -10 109 0 109 5
0 2 8 -7 18 -13 15 -14 21 -4 32 8 9 9 11 0 6 -7 -4 -12 0 -12 11 1 36 -9 75
-31 128 -5 11 -11 32 -14 47 -3 15 -12 33 -19 40 -6 7 -13 20 -15 28 -2 8 -7
16 -12 18 -5 2 -7 9 -4 16 3 8 -2 16 -10 19 -9 4 -16 14 -16 22 0 9 -4 13 -10
10 -6 -3 -7 1 -4 9 4 10 -6 28 -27 48 -19 17 -27 28 -19 23 8 -4 6 1 -5 12
-11 11 -23 19 -27 16 -5 -2 -8 3 -8 11 0 9 -4 16 -10 16 -5 0 -10 8 -10 18 0
14 -2 15 -10 2 -8 -13 -10 -12 -10 3 0 10 -10 21 -22 26 -13 5 -23 12 -23 17
0 5 -3 8 -7 6 -5 -1 -8 5 -8 14 0 8 -4 13 -8 10 -5 -3 -15 4 -22 15 -8 10 -23
19 -33 19 -10 0 -15 5 -12 10 3 6 -1 10 -9 10 -9 0 -16 5 -16 12 0 6 -3 8 -6
5 -9 -9 -46 12 -39 23 3 5 -8 7 -25 5 -17 -2 -28 0 -25 5 3 5 -6 12 -20 16
-14 3 -25 11 -25 18 0 6 -5 4 -10 -4 -9 -13 -10 -13 -10 0 0 10 -11 16 -31 16
-17 1 -35 8 -40 15 -7 12 -9 11 -9 -1 0 -9 -3 -11 -8 -5 -7 10 -23 16 -54 18
-10 1 -18 6 -18 12 0 5 -5 3 -10 -5 -7 -11 -10 -11 -10 -2 0 7 -4 11 -9 7 -5
-3 -12 -1 -16 4 -3 7 -15 7 -29 1 -13 -5 -26 -7 -29 -4 -10 10 -47 12 -47 2 0
-7 -4 -7 -12 0 -7 5 -22 6 -33 2 -11 -4 -28 -3 -37 2 -12 6 -18 5 -18 -2 0 -7
-6 -8 -18 -1 -14 7 -23 6 -35 -7z m108 -295 c79 6 128 2 138 -12 5 -7 10 -6
16 3 6 11 10 10 15 -3 3 -10 12 -15 21 -11 8 3 17 1 21 -5 4 -6 12 -5 22 3 13
11 15 10 9 -4 -3 -10 -3 -17 1 -17 4 1 9 0 12 -1 9 -3 44 -10 62 -12 9 -1 16
-5 16 -8 -2 -19 3 -30 11 -25 5 3 12 1 16 -5 4 -6 11 -8 16 -5 5 4 9 1 9 -4 0
-6 8 -11 18 -11 12 0 13 -3 4 -8 -8 -6 -1 -14 23 -25 20 -10 33 -22 30 -27 -4
-6 -3 -10 2 -9 23 4 35 -2 29 -17 -3 -8 -2 -13 2 -11 4 2 15 -4 25 -15 11 -12
13 -18 5 -18 -9 0 -8 -3 2 -9 8 -6 18 -7 24 -4 5 3 6 1 2 -5 -3 -6 -1 -14 5
-17 5 -4 8 -14 5 -22 -3 -8 -2 -12 2 -9 5 3 18 -12 30 -34 14 -27 17 -40 9
-44 -7 -2 -4 -5 7 -5 12 -1 16 -6 13 -16 -4 -8 -2 -17 4 -20 5 -4 7 -10 4 -15
-3 -4 2 -13 10 -20 12 -10 13 -16 4 -26 -7 -9 -8 -14 -1 -14 5 0 10 -10 10
-22 0 -57 6 -88 16 -88 7 0 7 -3 1 -8 -9 -6 -12 -24 -17 -109 -1 -18 -5 -30
-10 -27 -4 3 -9 -6 -9 -20 -1 -14 -3 -30 -4 -36 -1 -5 -3 -15 -4 -21 0 -5 -5
-7 -11 -4 -5 3 -9 -2 -8 -12 3 -37 -2 -53 -18 -53 -8 0 -12 -4 -9 -10 3 -5 1
-10 -5 -10 -6 0 -8 -5 -4 -12 5 -8 2 -9 -11 -4 -14 5 -15 4 -7 -7 8 -9 3 -18
-19 -36 -25 -20 -27 -26 -17 -39 10 -13 10 -14 0 -8 -7 4 -15 1 -18 -8 -3 -9
-10 -13 -15 -10 -5 3 -9 -1 -9 -8 0 -7 -11 -22 -25 -32 -13 -10 -22 -23 -18
-29 3 -6 1 -7 -5 -3 -7 4 -12 2 -12 -5 0 -6 -8 -9 -19 -6 -15 3 -18 1 -14 -11
4 -10 2 -13 -5 -8 -7 4 -12 2 -12 -4 0 -6 -4 -9 -8 -6 -5 3 -14 -4 -22 -14 -8
-10 -18 -16 -22 -13 -5 3 -16 -3 -23 -13 -11 -15 -14 -16 -15 -4 0 13 -2 13
-9 1 -5 -8 -16 -11 -26 -8 -9 4 -14 3 -11 -2 7 -11 -22 -23 -35 -15 -5 3 -9 0
-9 -7 0 -8 -4 -8 -15 1 -12 10 -16 9 -21 -4 -5 -13 -9 -14 -20 -5 -11 9 -14 9
-14 0 0 -7 -4 -9 -10 -6 -5 3 -10 2 -10 -2 0 -11 -41 -10 -59 1 -9 6 -12 5 -8
-1 4 -7 -5 -10 -23 -9 -17 0 -30 4 -30 7 0 4 -8 5 -19 2 -10 -3 -22 0 -26 7
-5 8 -10 8 -21 -1 -11 -9 -14 -8 -15 7 0 11 -3 13 -6 7 -3 -9 -10 -10 -23 -3
-11 6 -23 9 -27 8 -4 -1 -27 8 -49 20 -23 11 -44 18 -48 15 -3 -4 -6 -1 -6 5
0 7 -6 12 -14 12 -8 0 -16 4 -18 9 -1 5 -10 11 -18 13 -20 4 -39 21 -33 31 2
4 -5 7 -16 7 -12 0 -21 3 -21 8 0 4 -9 18 -20 32 -17 20 -19 21 -14 5 7 -20 7
-20 -9 0 -8 11 -13 24 -9 29 3 5 -2 7 -12 3 -9 -4 -15 -3 -12 2 3 5 -6 21 -19
35 -14 15 -25 31 -25 37 0 5 -6 9 -12 9 -10 0 -10 2 0 9 11 7 10 9 -3 15 -9 3
-13 10 -10 16 3 6 0 13 -9 16 -8 3 -13 14 -11 25 2 11 -5 25 -18 34 -15 10
-17 15 -7 16 11 0 11 2 2 6 -6 2 -10 9 -6 14 3 5 0 9 -6 9 -8 0 -8 6 0 20 8
15 8 20 -2 20 -10 0 -13 26 -13 108 0 59 4 113 9 121 7 10 5 12 -5 6 -11 -6
-12 -5 -2 5 10 11 10 17 0 29 -9 12 -9 13 1 7 7 -4 12 -1 12 9 0 9 5 13 11 9
8 -4 8 0 0 15 -8 14 -8 21 -1 21 5 0 10 7 10 15 0 8 6 15 13 15 9 0 9 2 -1 8
-9 7 -8 14 8 32 19 22 24 35 21 53 -1 5 3 6 8 3 5 -3 16 10 25 29 10 21 22 33
28 29 7 -4 8 -3 4 4 -3 6 3 16 14 22 11 6 18 15 15 21 -4 5 1 9 9 9 9 0 16 5
16 11 0 5 5 7 11 4 6 -4 9 0 7 11 -2 13 3 19 14 18 10 -1 15 2 13 7 -3 4 4 13
15 19 11 6 20 7 20 3 1 -4 9 2 19 15 13 15 21 18 24 10 3 -8 6 -6 6 5 1 10 6
15 11 12 6 -3 10 -1 10 5 0 7 7 10 15 6 8 -3 15 -1 15 4 0 6 7 10 15 10 8 0
15 6 15 13 0 8 4 7 10 -3 7 -12 10 -12 10 -1 0 7 6 11 15 7 8 -3 18 0 22 7 5
7 24 12 43 13 24 0 34 4 32 14 -2 9 1 11 10 4 7 -6 31 -9 53 -7z m-314 -100
c-10 -9 -11 -8 -5 6 3 10 9 15 12 12 3 -3 0 -11 -7 -18z"/>
<path d="M4088 3429 c-10 -5 -15 -19 -13 -34 1 -14 -2 -25 -8 -25 -6 0 -6 -5
-1 -12 5 -7 8 -26 7 -43 -5 -44 -4 -47 0 -77 2 -16 0 -28 -5 -28 -5 0 -6 -5
-2 -12 5 -7 8 -26 7 -43 0 -30 0 -30 48 -28 33 2 49 -2 49 -10 0 -8 3 -8 9 2
6 9 19 12 40 8 21 -4 31 -3 31 5 0 9 3 9 11 1 6 -6 18 -9 25 -6 8 3 21 0 28
-6 11 -10 17 -8 25 6 6 11 11 13 11 5 0 -7 4 -11 8 -8 4 2 13 -4 20 -14 7 -12
8 -21 2 -25 -5 -3 -6 -15 -1 -28 5 -14 5 -30 0 -40 -7 -12 -6 -17 2 -17 9 0 9
-3 0 -14 -9 -11 -9 -15 1 -19 7 -3 8 -6 2 -6 -10 -1 -10 -68 0 -79 3 -2 1 -13
-5 -23 -7 -14 -6 -19 2 -19 9 0 9 -3 0 -14 -9 -11 -9 -15 1 -19 7 -3 8 -6 2
-6 -10 -1 -10 -68 0 -79 3 -2 1 -13 -5 -23 -7 -14 -6 -19 2 -19 9 0 9 -3 0
-14 -9 -11 -9 -15 1 -19 7 -3 8 -6 2 -6 -10 -1 -10 -68 0 -79 3 -2 1 -13 -5
-23 -7 -14 -6 -19 2 -19 9 0 9 -3 0 -14 -9 -11 -9 -15 1 -19 10 -4 10 -6 1 -6
-9 -1 -10 -8 -4 -24 5 -14 5 -30 0 -40 -7 -12 -6 -17 2 -17 9 0 9 -3 0 -14 -8
-10 -9 -16 -1 -21 7 -4 7 -12 0 -26 -8 -13 -7 -19 0 -19 6 0 8 -5 4 -12 -11
-17 -11 -58 -1 -58 4 0 3 -9 -3 -19 -7 -14 -6 -21 3 -24 9 -4 9 -6 0 -6 -9 -1
-10 -8 -4 -24 5 -14 5 -30 0 -40 -7 -12 -6 -17 2 -17 8 0 8 -4 -1 -15 -10 -12
-10 -15 1 -15 9 0 10 -3 4 -8 -12 -8 -14 -72 -2 -72 4 0 3 -9 -3 -19 -7 -14
-7 -20 2 -23 8 -3 8 -9 1 -23 -7 -12 -8 -28 -2 -43 6 -15 5 -21 -1 -17 -6 3
-10 0 -10 -7 0 -16 -56 -18 -79 -4 -9 6 -12 5 -7 -2 4 -7 -14 -9 -56 -8 -35 2
-69 -2 -77 -8 -11 -8 -13 -8 -7 2 6 9 1 12 -16 10 -12 -2 -29 -7 -37 -12 -10
-7 -12 -6 -6 4 6 9 4 11 -4 5 -8 -4 -10 -17 -6 -32 4 -17 2 -23 -6 -18 -8 6
-8 2 0 -13 14 -26 14 -35 1 -27 -5 3 -7 0 -4 -9 9 -24 10 -79 2 -104 -5 -14
-4 -21 2 -17 5 3 7 -11 4 -34 -4 -33 -1 -42 16 -51 15 -8 20 -8 20 2 0 9 3 9
11 1 7 -7 20 -8 34 -3 14 5 27 4 34 -3 8 -8 11 -8 11 2 0 9 4 10 13 5 11 -8
32 -10 47 -4 20 7 40 7 40 -1 0 -6 7 -6 18 0 13 7 23 6 30 -1 9 -9 12 -9 12 1
0 9 4 10 13 5 11 -8 32 -10 47 -4 18 6 40 7 40 1 0 -9 31 -8 47 2 6 4 15 3 18
-3 5 -8 12 -7 22 2 9 7 17 13 17 12 18 -15 46 -22 52 -13 4 8 9 7 15 -2 7 -11
9 -11 9 -1 0 8 5 10 13 5 16 -10 37 -10 65 -1 15 5 22 3 22 -5 0 -8 3 -8 9 2
6 9 10 10 16 2 5 -9 10 -9 20 -1 10 8 15 8 20 0 5 -8 10 -8 20 0 10 8 15 8 20
0 5 -8 11 -7 22 2 9 7 19 11 22 10 32 -19 40 -21 47 -11 4 8 9 7 15 -2 7 -12
9 -12 9 0 0 10 3 11 14 2 8 -7 17 -8 20 -3 3 5 5 77 4 158 l-1 150 -86 0 c-48
0 -89 -5 -93 -11 -5 -6 -8 -6 -8 2 0 7 -15 11 -42 9 -50 -3 -80 3 -73 15 3 4
-3 12 -12 18 -10 6 -13 11 -7 11 14 0 14 33 0 42 -8 6 -8 8 0 8 12 0 12 29 0
48 -4 6 -3 12 3 12 5 0 8 8 6 18 -1 9 2 23 8 30 7 9 6 11 -8 6 -15 -6 -16 -4
-7 12 7 14 7 25 0 38 -6 10 -6 16 -1 13 13 -8 11 86 -2 95 -6 5 -6 11 2 19 9
9 9 18 2 32 -6 11 -7 17 -2 14 12 -8 11 86 0 94 -5 4 -6 13 -1 20 10 16 14 99
4 99 -3 0 -7 7 -7 15 0 8 3 12 6 10 4 -2 7 19 7 46 0 28 -4 49 -10 49 -6 0 -4
5 4 10 13 9 13 10 0 10 -9 0 -11 3 -5 8 13 9 16 92 3 92 -5 0 -6 6 -1 12 10
17 13 68 4 68 -4 0 -8 7 -8 15 0 8 3 12 6 10 4 -2 7 19 7 46 0 28 -4 49 -10
49 -6 0 -4 5 4 10 13 9 13 10 0 10 -9 0 -11 3 -5 8 14 10 16 92 2 92 -8 0 -7
3 1 9 8 4 13 11 13 15 -4 29 1 36 23 32 14 -2 27 1 30 7 3 8 5 8 5 1 1 -7 12
-9 27 -6 21 4 25 2 20 -9 -4 -8 -1 -6 7 4 10 12 17 14 22 7 3 -5 11 -8 16 -5
5 4 9 0 10 -7 0 -7 4 -4 9 7 5 11 9 16 9 10 1 -5 21 -10 45 -11 25 0 43 3 41
6 -3 4 7 5 21 2 l25 -5 -2 152 c-2 146 -3 151 -23 152 -12 1 -25 0 -31 -1 -17
-3 -39 -2 -62 3 -14 4 -23 1 -23 -6 0 -8 -3 -8 -11 0 -8 8 -20 8 -35 3 -17 -7
-24 -6 -24 3 0 9 -2 9 -8 0 -5 -8 -13 -9 -22 -3 -8 5 -21 5 -32 -1 -10 -5 -18
-6 -18 -1 0 11 -53 9 -62 -3 -5 -6 -8 -5 -8 2 0 9 -7 10 -24 3 -13 -5 -26 -7
-29 -4 -10 10 -47 12 -47 3 0 -6 -5 -7 -12 -3 -14 9 -113 8 -128 -1 -5 -3 -10
0 -10 7 0 9 -3 9 -10 -2 -5 -8 -10 -10 -10 -4 0 6 -7 11 -15 11 -8 0 -15 -5
-15 -11 0 -6 -4 -6 -11 1 -8 8 -20 8 -34 3 -13 -5 -25 -7 -28 -4 -10 11 -47
12 -47 1 0 -8 -3 -8 -11 0 -8 8 -20 8 -35 3 -15 -6 -24 -5 -28 3 -3 9 -5 9 -5
-1 -1 -9 -6 -10 -19 -3 -11 6 -24 6 -34 0z"/>
<path d="M970 2969 c0 -7 -3 -10 -6 -6 -4 3 -14 -1 -23 -10 -11 -12 -12 -18
-3 -21 9 -3 9 -9 1 -24 -9 -16 -8 -19 3 -12 11 6 11 5 -1 -9 -9 -11 -10 -17
-2 -17 6 0 11 -5 11 -11 0 -5 -4 -8 -8 -5 -5 3 -9 -1 -9 -9 0 -8 5 -15 10 -15
5 0 4 -7 -3 -15 -10 -12 -10 -15 0 -15 10 0 10 -3 0 -15 -10 -12 -10 -15 0
-15 10 0 10 -4 -1 -16 -10 -13 -10 -17 0 -24 11 -6 11 -9 0 -13 -12 -5 -12 -6
0 -6 11 -1 11 -4 0 -18 -12 -15 -12 -16 1 -8 13 8 13 7 1 -8 -9 -12 -10 -17
-2 -17 9 0 9 -5 0 -22 -9 -17 -9 -23 1 -26 9 -3 9 -6 -1 -13 -12 -7 -12 -9 0
-9 11 0 11 -3 0 -17 -12 -15 -12 -16 1 -8 13 8 13 7 1 -8 -9 -12 -10 -17 -2
-17 9 0 9 -5 0 -21 -8 -17 -8 -23 1 -29 8 -5 9 -13 4 -21 -11 -19 -13 -49 -2
-49 5 0 4 -10 -3 -21 -8 -16 -8 -23 1 -29 9 -6 9 -9 -1 -13 -12 -5 -12 -6 0
-6 11 -1 11 -4 0 -18 -12 -15 -12 -16 1 -8 13 8 13 7 1 -8 -9 -12 -10 -17 -2
-17 9 0 9 -5 0 -21 -8 -16 -8 -23 1 -29 9 -6 9 -9 -1 -13 -12 -5 -12 -6 0 -6
11 -1 11 -4 0 -18 -12 -15 -12 -16 1 -8 13 8 13 7 1 -8 -9 -12 -10 -17 -2 -17
9 0 9 -5 0 -21 -8 -16 -8 -23 1 -29 9 -6 9 -9 -1 -13 -12 -5 -12 -6 0 -6 11
-1 11 -4 0 -18 -12 -15 -12 -16 1 -8 13 8 13 7 1 -8 -9 -12 -10 -17 -2 -17 9
0 9 -5 0 -21 -8 -16 -8 -23 1 -29 9 -6 9 -9 -1 -13 -12 -5 -12 -6 0 -6 11 -1
11 -4 0 -18 -12 -15 -12 -16 1 -8 13 8 13 7 1 -8 -9 -12 -10 -17 -2 -17 9 0 9
-5 0 -22 -9 -17 -9 -23 1 -26 9 -3 9 -6 -1 -13 -12 -7 -12 -9 0 -9 11 0 11 -3
0 -17 -12 -14 -12 -16 0 -8 10 6 12 4 6 -5 -11 -18 -13 -60 -2 -60 4 0 3 -10
-4 -21 -8 -16 -8 -23 1 -29 9 -6 9 -9 -1 -13 -12 -5 -12 -6 0 -6 11 -1 11 -4
0 -18 -12 -15 -12 -16 1 -8 13 8 13 7 1 -8 -9 -12 -10 -17 -2 -17 9 0 9 -5 0
-21 -8 -17 -8 -23 1 -29 8 -5 9 -13 4 -21 -13 -21 -13 -39 -1 -39 8 0 8 -3 2
-8 -12 -8 -18 -29 -17 -54 0 -10 -4 -20 -9 -23 -5 -4 -7 -11 -4 -16 4 -5 1 -9
-5 -9 -6 0 -8 -4 -5 -10 3 -5 1 -10 -5 -10 -6 0 -8 -4 -5 -10 3 -5 1 -10 -5
-10 -6 0 -8 -4 -5 -10 3 -5 -1 -10 -9 -10 -9 0 -16 -7 -16 -15 0 -8 -7 -15
-15 -15 -9 0 -12 -6 -8 -17 4 -10 2 -14 -4 -10 -6 4 -14 0 -17 -9 -3 -8 -10
-12 -16 -9 -5 3 -10 -1 -10 -10 0 -10 -7 -15 -17 -13 -10 2 -17 -2 -16 -9 2
-7 -6 -10 -17 -8 -11 2 -20 -2 -20 -8 0 -7 -4 -6 -10 3 -6 10 -10 11 -10 3 0
-8 -13 -13 -31 -13 -36 0 -61 -21 -49 -40 5 -8 6 -19 2 -25 -10 -16 -11 -35
-1 -35 5 0 4 -11 -1 -25 -6 -16 -6 -25 1 -25 6 0 6 -7 -1 -19 -7 -13 -7 -22 0
-26 7 -4 7 -13 0 -26 -8 -14 -7 -19 2 -19 9 0 9 -3 -2 -10 -10 -6 -11 -10 -3
-10 9 0 10 -7 3 -26 -12 -32 -12 -34 1 -34 5 0 7 6 3 13 -6 9 -4 9 7 0 14 -14
59 -18 59 -5 0 4 20 8 45 8 27 1 53 8 64 18 14 13 21 14 26 6 6 -9 9 -9 15 -1
3 7 19 14 35 17 16 3 34 13 41 22 7 9 16 14 20 10 4 -4 15 2 25 13 10 12 23
18 30 13 8 -4 9 -3 5 5 -4 6 0 14 11 18 24 9 101 90 108 114 4 11 11 17 16 14
8 -6 13 8 10 27 0 5 4 8 10 8 6 0 9 7 6 14 -4 9 2 17 14 21 16 5 20 13 16 31
-2 13 0 21 4 18 8 -5 13 10 10 29 0 4 3 7 8 7 5 0 8 11 7 25 -2 14 1 22 7 18
6 -4 8 2 5 15 -4 12 -2 22 4 22 5 0 6 5 2 11 -3 6 0 15 7 20 12 7 12 9 0 9
-11 0 -10 4 5 16 10 8 14 13 7 10 -6 -4 -14 -2 -18 4 -3 5 -2 10 4 10 11 0 9
19 -3 39 -6 9 -5 12 1 8 6 -4 14 0 17 9 3 8 2 12 -3 9 -5 -3 -12 -1 -16 5 -3
5 -2 10 4 10 11 0 9 19 -3 39 -6 9 -5 12 1 8 6 -4 14 0 17 9 3 8 2 12 -3 9 -5
-3 -12 -1 -16 5 -3 5 -2 10 4 10 11 0 9 19 -3 39 -6 9 -5 12 1 8 6 -4 14 0 17
9 3 8 2 12 -3 9 -5 -3 -12 -1 -16 5 -3 5 -2 10 4 10 11 0 9 19 -3 39 -6 9 -5
12 1 8 6 -4 14 0 17 9 3 8 2 12 -3 9 -5 -3 -12 -1 -16 5 -3 5 -2 10 4 10 11 0
9 19 -3 39 -6 9 -5 12 1 8 6 -4 14 0 17 9 3 8 2 12 -3 9 -5 -3 -12 -1 -16 5
-3 5 -2 10 4 10 11 0 9 19 -3 39 -6 9 -5 12 1 8 6 -4 14 0 17 9 3 8 2 12 -3 9
-5 -3 -12 -1 -16 5 -3 5 -2 10 4 10 11 0 9 19 -3 39 -6 9 -5 12 1 8 6 -4 14 0
17 9 3 8 2 12 -3 9 -5 -3 -12 -1 -16 5 -3 5 -2 10 4 10 11 0 9 19 -3 39 -6 9
-5 12 1 8 6 -4 14 0 17 9 3 8 2 12 -3 9 -5 -3 -12 -1 -16 5 -3 5 -2 10 4 10
11 0 9 19 -3 39 -6 9 -5 12 1 8 6 -4 14 0 17 9 3 8 2 12 -3 9 -5 -3 -12 -1
-16 5 -3 5 -2 10 4 10 11 0 9 19 -3 39 -6 9 -5 12 1 8 6 -4 14 0 17 9 3 8 2
12 -3 9 -5 -3 -12 -1 -16 5 -3 5 -2 10 4 10 11 0 9 19 -3 39 -6 9 -5 12 1 8 6
-4 14 0 17 9 3 8 2 12 -3 9 -5 -3 -12 -1 -16 5 -3 5 -2 10 4 10 10 0 9 19 -3
38 -4 7 -2 20 6 29 14 17 13 19 -5 42 -9 12 -9 13 1 7 8 -5 11 -1 9 13 -2 11
-6 24 -10 27 -4 4 -7 12 -7 18 0 6 4 5 9 -3 6 -9 9 3 8 35 -1 27 -6 52 -12 56
-6 5 -5 8 4 8 10 0 11 3 2 14 -7 9 -8 17 -2 20 11 7 9 25 -3 45 -6 10 -5 12 2
7 13 -8 12 28 -1 40 -4 4 -7 12 -7 18 0 6 4 5 9 -3 6 -9 9 3 8 35 -1 27 -6 52
-12 56 -6 5 -6 8 2 8 13 0 12 18 -1 39 -6 9 -5 12 1 8 5 -3 10 0 10 8 0 8 -3
13 -5 10 -3 -3 -11 0 -19 6 -7 6 -13 8 -13 3 0 -12 -113 -11 -122 1 -5 7 -8 6
-8 -1 0 -11 -51 -10 -71 1 -8 6 -10 4 -4 -4 6 -10 3 -11 -14 -2 -16 9 -21 9
-21 0z"/>
<path d="M380 1986 c0 -2 8 -10 18 -17 15 -13 16 -12 3 4 -13 16 -21 21 -21
13z"/>
</g>
</svg>
