<?xml version="1.0" standalone="no"?>
<!DOCTYPE svg PUBLIC "-//W3C//DTD SVG 20010904//EN"
 "http://www.w3.org/TR/2001/REC-SVG-20010904/DTD/svg10.dtd">
<svg version="1.0" xmlns="http://www.w3.org/2000/svg"
 width="700.000000pt" height="700.000000pt" viewBox="0 0 700.000000 700.000000"
 preserveAspectRatio="xMidYMid meet">
<metadata>
Created by potrace 1.14, written by Peter Selinger 2001-2017
</metadata>
<g transform="translate(0.000000,700.000000) scale(0.100000,-0.100000)"
fill="#000000" stroke="none">
<path d="M0 3900 c1 -549 5 -935 11 -965 5 -27 12 -63 15 -79 3 -16 18 -62 33
-103 122 -313 408 -528 743 -558 l75 -7 -1 215 c-1 119 -3 217 -6 220 -3 3
-26 8 -52 11 -169 23 -328 160 -364 316 -4 19 -9 42 -11 50 -6 27 -6 710 0
716 3 3 101 7 219 7 l213 2 0 215 0 215 -218 3 c-198 2 -217 4 -218 20 0 9 -1
157 -1 327 l-1 311 -218 0 -219 0 0 -916z"/>
<path d="M1485 4810 c-200 -47 -234 -314 -51 -405 147 -73 316 33 316 198 0
128 -139 237 -265 207z"/>
<path d="M2189 4751 c-2 -206 -1 -363 4 -367 3 -3 101 -6 218 -7 l214 -2 0
-872 0 -873 -217 0 -218 0 -1 -52 c-1 -59 -1 -343 0 -370 1 -17 39 -18 656
-18 l655 0 0 220 0 220 -218 0 -219 0 0 875 0 874 196 0 c108 0 206 0 219 0
l22 1 0 218 0 219 -655 0 -655 -1 -1 -65z"/>
<path d="M4528 4815 c-2 -1 -32 -5 -68 -8 -178 -15 -379 -81 -534 -174 -102
-61 -166 -113 -262 -208 -340 -339 -463 -833 -325 -1305 43 -146 150 -347 241
-450 134 -153 260 -254 415 -332 201 -102 370 -142 595 -143 149 0 213 8 340
41 113 30 125 34 260 101 248 124 452 330 574 578 69 142 104 245 121 355 2
19 9 62 14 94 27 180 -14 452 -96 645 -174 409 -524 695 -957 781 -83 17 -307
34 -318 25z m231 -454 c79 -15 194 -56 243 -87 21 -13 41 -24 46 -24 14 0 135
-100 185 -154 145 -154 229 -365 230 -576 1 -126 -9 -198 -39 -288 -96 -282
-324 -496 -610 -573 -113 -31 -326 -32 -437 -1 -387 106 -648 438 -651 827 -1
139 7 199 43 303 71 205 224 383 421 489 160 87 380 119 569 84z"/>
<path d="M5689 4791 c-3 -118 0 -403 4 -407 3 -3 101 -6 218 -7 l214 -2 0
-870 0 -870 -218 -3 -217 -2 -1 -28 c0 -24 0 -350 1 -394 0 -17 38 -18 655
-18 l655 0 0 220 0 220 -218 0 -219 0 0 876 0 875 126 -1 c69 -1 168 -1 219
-1 l92 1 0 218 0 219 -655 0 -655 0 -1 -26z"/>
<path d="M1312 3143 l0 -1018 -22 -64 c-49 -146 -159 -252 -300 -290 -25 -7
-58 -14 -75 -15 -16 -2 -32 -4 -35 -5 -3 0 -6 -98 -7 -216 -1 -157 2 -215 10
-216 115 -12 324 50 459 134 182 114 305 279 375 503 l28 89 3 1058 3 1057
-219 0 -219 0 -1 -1017z"/>
</g>
</svg>
