<svg width="500" height="500" viewBox="0 0 500 500" fill="none" xmlns="http://www.w3.org/2000/svg">
<circle cx="250" cy="250" r="245" stroke="#0A1F2F" stroke-width="10"/>
<circle cx="250" cy="250" r="240" fill="#233B54"/>
<mask id="mask0_11_43" style="mask-type:alpha" maskUnits="userSpaceOnUse" x="-1" y="0" width="501" height="501">
<path d="M500 250C500 306.547 480.829 361.424 445.618 405.671C410.407 449.918 361.235 480.921 306.132 493.617C251.028 506.313 193.248 499.954 142.225 475.576C91.2021 451.199 49.9508 410.243 25.2063 359.397C0.461731 308.551 -6.31413 250.818 5.98497 195.625C18.2841 140.431 48.9316 91.0375 92.9235 55.5084C136.915 19.9794 191.653 0.413881 248.199 0.00648811C304.745 -0.400905 359.759 18.3739 404.258 53.2654L250 250H500Z" fill="black"/>
</mask>
<g mask="url(#mask0_11_43)">
<circle cx="250" cy="250" r="245" stroke="#F79700" stroke-width="10"/>
</g>
</svg>
